<mxfile host="app.diagrams.net" modified="2024-02-04T17:18:00.901Z" agent="Mozilla/5.0 (Windows NT 10.0; Win64; x64) AppleWebKit/537.36 (KHTML, like Gecko) Chrome/121.0.0.0 Safari/537.36" etag="ob-xwAqjxcEiwdTSVNW2" version="22.1.21" type="google">
  <diagram name="Page-1" id="UUWunCe882ysiCT4MaQ1">
    <mxGraphModel grid="1" page="1" gridSize="10" guides="1" tooltips="1" connect="1" arrows="1" fold="1" pageScale="1" pageWidth="850" pageHeight="1100" math="0" shadow="0">
      <root>
        <mxCell id="0" />
        <mxCell id="1" parent="0" />
        <mxCell id="9E4I4_gFTTMH1OOq4oHf-2" value="" style="whiteSpace=wrap;html=1;aspect=fixed;" vertex="1" parent="1">
          <mxGeometry x="130" y="70" width="830" height="830" as="geometry" />
        </mxCell>
        <mxCell id="9E4I4_gFTTMH1OOq4oHf-3" value="Buy stock" style="ellipse;whiteSpace=wrap;html=1;" vertex="1" parent="1">
          <mxGeometry x="200" y="180" width="130" height="50" as="geometry" />
        </mxCell>
        <mxCell id="9E4I4_gFTTMH1OOq4oHf-4" value="Customer" style="shape=umlActor;verticalLabelPosition=bottom;verticalAlign=top;html=1;outlineConnect=0;" vertex="1" parent="1">
          <mxGeometry x="70" y="600" width="30" height="60" as="geometry" />
        </mxCell>
        <mxCell id="9E4I4_gFTTMH1OOq4oHf-5" value="inventory system" style="shape=umlActor;verticalLabelPosition=bottom;verticalAlign=top;html=1;outlineConnect=0;" vertex="1" parent="1">
          <mxGeometry x="70" y="415" width="30" height="60" as="geometry" />
        </mxCell>
        <mxCell id="9E4I4_gFTTMH1OOq4oHf-6" value="Manager" style="shape=umlActor;verticalLabelPosition=bottom;verticalAlign=top;html=1;outlineConnect=0;" vertex="1" parent="1">
          <mxGeometry x="70" y="230" width="30" height="60" as="geometry" />
        </mxCell>
        <mxCell id="9E4I4_gFTTMH1OOq4oHf-13" value="Generate sale report" style="ellipse;whiteSpace=wrap;html=1;" vertex="1" parent="1">
          <mxGeometry x="200" y="250" width="140" height="50" as="geometry" />
        </mxCell>
        <mxCell id="9E4I4_gFTTMH1OOq4oHf-14" value="Supplier" style="shape=umlActor;verticalLabelPosition=bottom;verticalAlign=top;html=1;outlineConnect=0;" vertex="1" parent="1">
          <mxGeometry x="1050" y="240" width="30" height="60" as="geometry" />
        </mxCell>
        <mxCell id="9E4I4_gFTTMH1OOq4oHf-15" value="Cashier" style="shape=umlActor;verticalLabelPosition=bottom;verticalAlign=top;html=1;outlineConnect=0;" vertex="1" parent="1">
          <mxGeometry x="1050" y="510" width="30" height="60" as="geometry" />
        </mxCell>
        <mxCell id="9E4I4_gFTTMH1OOq4oHf-16" value="Supply stock" style="ellipse;whiteSpace=wrap;html=1;" vertex="1" parent="1">
          <mxGeometry x="510" y="230" width="170" height="60" as="geometry" />
        </mxCell>
        <mxCell id="9E4I4_gFTTMH1OOq4oHf-17" value="Receive payment" style="ellipse;whiteSpace=wrap;html=1;" vertex="1" parent="1">
          <mxGeometry x="520" y="310" width="170" height="60" as="geometry" />
        </mxCell>
        <mxCell id="9E4I4_gFTTMH1OOq4oHf-19" value="Receive payment" style="ellipse;whiteSpace=wrap;html=1;" vertex="1" parent="1">
          <mxGeometry x="360" y="415" width="170" height="60" as="geometry" />
        </mxCell>
        <mxCell id="9E4I4_gFTTMH1OOq4oHf-22" value="payment" style="ellipse;whiteSpace=wrap;html=1;" vertex="1" parent="1">
          <mxGeometry x="370" y="680" width="170" height="60" as="geometry" />
        </mxCell>
        <mxCell id="9E4I4_gFTTMH1OOq4oHf-23" value="Scan items" style="ellipse;whiteSpace=wrap;html=1;" vertex="1" parent="1">
          <mxGeometry x="740" y="600" width="170" height="60" as="geometry" />
        </mxCell>
        <mxCell id="9E4I4_gFTTMH1OOq4oHf-24" value="By debit" style="ellipse;whiteSpace=wrap;html=1;" vertex="1" parent="1">
          <mxGeometry x="590" y="760" width="130" height="60" as="geometry" />
        </mxCell>
        <mxCell id="9E4I4_gFTTMH1OOq4oHf-25" value="By credit" style="ellipse;whiteSpace=wrap;html=1;" vertex="1" parent="1">
          <mxGeometry x="400" y="810" width="130" height="60" as="geometry" />
        </mxCell>
        <mxCell id="9E4I4_gFTTMH1OOq4oHf-26" value="By cash" style="ellipse;whiteSpace=wrap;html=1;" vertex="1" parent="1">
          <mxGeometry x="230" y="800" width="130" height="60" as="geometry" />
        </mxCell>
        <mxCell id="9E4I4_gFTTMH1OOq4oHf-29" value="" style="endArrow=none;html=1;rounded=0;" edge="1" parent="1" target="9E4I4_gFTTMH1OOq4oHf-13">
          <mxGeometry width="50" height="50" relative="1" as="geometry">
            <mxPoint x="100" y="270" as="sourcePoint" />
            <mxPoint x="150" y="220" as="targetPoint" />
          </mxGeometry>
        </mxCell>
        <mxCell id="9E4I4_gFTTMH1OOq4oHf-32" value="" style="endArrow=none;html=1;rounded=0;" edge="1" parent="1">
          <mxGeometry width="50" height="50" relative="1" as="geometry">
            <mxPoint x="660" y="240" as="sourcePoint" />
            <mxPoint x="1040" y="280" as="targetPoint" />
          </mxGeometry>
        </mxCell>
        <mxCell id="9E4I4_gFTTMH1OOq4oHf-33" value="" style="endArrow=none;html=1;rounded=0;" edge="1" parent="1">
          <mxGeometry width="50" height="50" relative="1" as="geometry">
            <mxPoint x="680" y="330" as="sourcePoint" />
            <mxPoint x="1040" y="290" as="targetPoint" />
          </mxGeometry>
        </mxCell>
        <mxCell id="9E4I4_gFTTMH1OOq4oHf-34" value="" style="endArrow=none;html=1;rounded=0;" edge="1" parent="1" target="9E4I4_gFTTMH1OOq4oHf-19">
          <mxGeometry width="50" height="50" relative="1" as="geometry">
            <mxPoint x="100" y="450" as="sourcePoint" />
            <mxPoint x="460" y="410" as="targetPoint" />
          </mxGeometry>
        </mxCell>
        <mxCell id="9E4I4_gFTTMH1OOq4oHf-35" value="" style="endArrow=none;html=1;rounded=0;" edge="1" parent="1">
          <mxGeometry width="50" height="50" relative="1" as="geometry">
            <mxPoint x="650" y="554" as="sourcePoint" />
            <mxPoint x="1040" y="550" as="targetPoint" />
          </mxGeometry>
        </mxCell>
        <mxCell id="9E4I4_gFTTMH1OOq4oHf-37" value="" style="endArrow=classic;html=1;rounded=0;" edge="1" parent="1" source="9E4I4_gFTTMH1OOq4oHf-21">
          <mxGeometry width="50" height="50" relative="1" as="geometry">
            <mxPoint x="560" y="610" as="sourcePoint" />
            <mxPoint x="610" y="560" as="targetPoint" />
          </mxGeometry>
        </mxCell>
        <mxCell id="9E4I4_gFTTMH1OOq4oHf-21" value="Select items" style="ellipse;whiteSpace=wrap;html=1;" vertex="1" parent="1">
          <mxGeometry x="470" y="520" width="170" height="60" as="geometry" />
        </mxCell>
        <mxCell id="9E4I4_gFTTMH1OOq4oHf-40" value="" style="endArrow=classic;html=1;rounded=0;" edge="1" parent="1" source="9E4I4_gFTTMH1OOq4oHf-21">
          <mxGeometry width="50" height="50" relative="1" as="geometry">
            <mxPoint x="470" y="560" as="sourcePoint" />
            <mxPoint x="470" y="670" as="targetPoint" />
          </mxGeometry>
        </mxCell>
        <mxCell id="9E4I4_gFTTMH1OOq4oHf-41" value="" style="endArrow=classic;html=1;rounded=0;" edge="1" parent="1">
          <mxGeometry width="50" height="50" relative="1" as="geometry">
            <mxPoint x="420" y="740" as="sourcePoint" />
            <mxPoint x="306" y="800" as="targetPoint" />
          </mxGeometry>
        </mxCell>
        <mxCell id="9E4I4_gFTTMH1OOq4oHf-42" value="" style="endArrow=classic;html=1;rounded=0;" edge="1" parent="1">
          <mxGeometry width="50" height="50" relative="1" as="geometry">
            <mxPoint x="470" y="740" as="sourcePoint" />
            <mxPoint x="466" y="810" as="targetPoint" />
          </mxGeometry>
        </mxCell>
        <mxCell id="9E4I4_gFTTMH1OOq4oHf-43" value="" style="endArrow=classic;html=1;rounded=0;exitX=1;exitY=0.5;exitDx=0;exitDy=0;" edge="1" parent="1" source="9E4I4_gFTTMH1OOq4oHf-22">
          <mxGeometry width="50" height="50" relative="1" as="geometry">
            <mxPoint x="704" y="669" as="sourcePoint" />
            <mxPoint x="640" y="760" as="targetPoint" />
          </mxGeometry>
        </mxCell>
        <mxCell id="9E4I4_gFTTMH1OOq4oHf-45" value="" style="endArrow=classic;html=1;rounded=0;" edge="1" parent="1" target="9E4I4_gFTTMH1OOq4oHf-23">
          <mxGeometry width="50" height="50" relative="1" as="geometry">
            <mxPoint x="604" y="580" as="sourcePoint" />
            <mxPoint x="540" y="671" as="targetPoint" />
          </mxGeometry>
        </mxCell>
        <mxCell id="9E4I4_gFTTMH1OOq4oHf-47" value="" style="endArrow=none;html=1;rounded=0;entryX=0.11;entryY=0.629;entryDx=0;entryDy=0;entryPerimeter=0;" edge="1" parent="1" target="9E4I4_gFTTMH1OOq4oHf-3">
          <mxGeometry width="50" height="50" relative="1" as="geometry">
            <mxPoint x="100" y="240" as="sourcePoint" />
            <mxPoint x="200" y="243" as="targetPoint" />
          </mxGeometry>
        </mxCell>
      </root>
    </mxGraphModel>
  </diagram>
</mxfile>
